<svg width="50" height="50" viewBox="0 0 50 50" fill="none" xmlns="http://www.w3.org/2000/svg">
<rect width="50" height="50" rx="5" fill="white"/>
<path d="M14.9 16.02H11.645C11.2717 16.02 11.085 16.1133 11.085 16.3V38H7.41C6.61667 38 6.09167 37.8833 5.835 37.65C5.60167 37.3933 5.485 36.8683 5.485 36.075V14.69C5.485 13.8733 5.60167 13.3367 5.835 13.08C6.09167 12.8233 6.61667 12.695 7.41 12.695H14.9V16.02ZM16.86 27.01H20.185C21.1417 27.01 21.76 27.2317 22.04 27.675C22.32 28.095 22.46 28.7717 22.46 29.705V34.885C22.46 36.425 22.0517 37.37 21.235 37.72C20.8383 37.9067 20.3367 38 19.73 38H12.485V34.71H15.425C16.3817 34.71 16.86 34.3717 16.86 33.695V27.01ZM16.405 12.695H19.73C20.6633 12.695 21.2583 12.905 21.515 13.325C21.795 13.745 21.935 14.4333 21.935 15.39V22.11C21.935 23.4633 21.69 24.4433 21.2 25.05C20.7333 25.6567 19.7417 25.96 18.225 25.96H12.485V22.635H15.075C15.6583 22.635 16.02 22.495 16.16 22.215C16.3233 21.935 16.405 21.5033 16.405 20.92V12.695ZM36.3648 16.02H33.1098C32.7365 16.02 32.5498 16.1133 32.5498 16.3V38H28.8748C28.0815 38 27.5565 37.8833 27.2998 37.65C27.0665 37.3933 26.9498 36.8683 26.9498 36.075V14.69C26.9498 13.8733 27.0665 13.3367 27.2998 13.08C27.5565 12.8233 28.0815 12.695 28.8748 12.695H36.3648V16.02ZM38.3248 27.01H41.6498C42.6065 27.01 43.2248 27.2317 43.5048 27.675C43.7848 28.095 43.9248 28.7717 43.9248 29.705V34.885C43.9248 36.425 43.5165 37.37 42.6998 37.72C42.3032 37.9067 41.8015 38 41.1948 38H33.9498V34.71H36.8898C37.8465 34.71 38.3248 34.3717 38.3248 33.695V27.01ZM37.8698 12.695H41.1948C42.1282 12.695 42.7232 12.905 42.9798 13.325C43.2598 13.745 43.3998 14.4333 43.3998 15.39V22.11C43.3998 23.4633 43.1548 24.4433 42.6648 25.05C42.1982 25.6567 41.2065 25.96 39.6898 25.96H33.9498V22.635H36.5398C37.1232 22.635 37.4848 22.495 37.6248 22.215C37.7882 21.935 37.8698 21.5033 37.8698 20.92V12.695Z" fill="black"/>
</svg>
